<svg width="26" height="17" viewBox="0 0 26 17" fill="none" xmlns="http://www.w3.org/2000/svg">
<path d="M23.6899 3.57694C23.9959 3.57694 24.2825 3.57322 24.5681 3.57787C24.8683 3.58345 24.9976 3.70812 24.9986 3.99745C25.0005 5.35388 25.0005 6.71031 24.9986 8.06674C24.9986 8.37561 24.8837 8.48632 24.5614 8.50772C23.6938 8.56447 23.0482 9.21384 23.0414 10.0381C23.0347 10.8596 23.6716 11.5118 24.5459 11.5797C24.8615 11.6039 24.986 11.7248 24.987 12.0272C24.9889 13.3678 24.9899 14.7075 24.987 16.0481C24.986 16.3718 24.8451 16.4993 24.5044 16.4993C16.838 16.5002 9.17065 16.5002 1.50424 16.4993C1.13077 16.4993 1.00145 16.3765 1.00145 16.0183C0.999517 14.7019 0.999517 13.3864 1.00145 12.07C1.00145 11.7127 1.11243 11.6011 1.47433 11.5788C2.3091 11.5276 2.9499 10.8782 2.96051 10.0744C2.97113 9.25106 2.35349 8.58587 1.51003 8.50958C1.11146 8.4733 1.02943 8.3905 1.02943 8.01092C1.02847 6.69449 1.02847 5.379 1.02943 4.06257C1.02943 3.70998 1.10374 3.62811 1.47433 3.57415C4.83272 3.08758 8.19498 2.60102 11.5572 2.11538C14.6618 1.66696 17.7664 1.21854 20.871 0.770116C21.4616 0.684525 22.0532 0.598934 22.6448 0.518925C23.1109 0.455662 23.2103 0.536601 23.275 0.983162C23.3927 1.79442 23.5182 2.60567 23.6426 3.41599C23.6494 3.46344 23.6697 3.50902 23.6899 3.57694ZM24.3191 4.27748C22.5521 4.27748 20.8227 4.27748 19.0963 4.27748C19.0885 4.31097 19.0808 4.32679 19.0808 4.3426C19.0799 4.58635 19.0799 4.8301 19.0779 5.07385C19.076 5.37807 18.9563 5.5325 18.7209 5.53623C18.4796 5.54088 18.357 5.39295 18.3541 5.08594C18.3512 4.8208 18.3532 4.55565 18.3532 4.28585C12.8012 4.28585 7.28783 4.28585 1.75902 4.28585C1.75902 5.48134 1.75902 6.66379 1.75902 7.85183C1.81982 7.86765 1.87579 7.88253 1.93176 7.89649C2.98657 8.16349 3.69975 9.03615 3.69975 10.0623C3.70071 11.0689 2.98367 11.949 1.93948 12.2058C1.78507 12.2439 1.74068 12.3016 1.74165 12.4496C1.74744 13.5139 1.74454 14.5772 1.74551 15.6415C1.74551 15.6964 1.75516 15.7513 1.76191 15.8146C7.28493 15.8146 12.7964 15.8146 18.3261 15.8146C18.3261 15.5131 18.3204 15.2303 18.3281 14.9475C18.3348 14.6805 18.5269 14.5093 18.7585 14.5586C18.9872 14.607 19.0606 14.7698 19.0606 14.9773C19.0606 15.2573 19.0606 15.5383 19.0606 15.8164C20.8256 15.8164 22.5473 15.8164 24.2805 15.8164C24.2805 14.6237 24.2805 13.4478 24.2805 12.2663C24.2313 12.2486 24.185 12.2291 24.1377 12.217C23.0405 11.9444 22.3717 11.1238 22.3659 10.0437C22.3601 9.0315 23.0655 8.15047 24.1097 7.88997C24.2767 7.84811 24.323 7.78671 24.3211 7.63041C24.3134 6.98848 24.3182 6.34748 24.3182 5.70555C24.3192 5.2348 24.3191 4.76498 24.3191 4.27748ZM17.0947 2.0149C13.5443 2.52752 10.0141 3.03641 6.48394 3.54624C6.4849 3.55461 6.48683 3.56298 6.4878 3.57136C11.9732 3.57136 17.4586 3.57136 22.9565 3.57136C22.8349 2.78522 22.7162 2.01863 22.5946 1.23528C20.9839 1.46508 19.4003 1.69115 17.8069 1.91815C17.8494 2.21121 17.888 2.46705 17.9247 2.72382C17.9662 3.01595 17.8755 3.18062 17.6574 3.2169C17.4238 3.25597 17.2655 3.11642 17.2183 2.82616C17.1768 2.56287 17.1382 2.29959 17.0947 2.0149Z" fill="white" stroke="white" stroke-width="0.3" stroke-miterlimit="10"/>
<path d="M9.98027 9.32828C8.58287 9.32828 7.18547 9.32828 5.78806 9.32735C5.69542 9.32735 5.59988 9.332 5.51206 9.3106C5.32773 9.26501 5.22254 9.14221 5.23316 8.95521C5.24184 8.78217 5.34414 8.66867 5.52364 8.63518C5.60567 8.62029 5.69059 8.61936 5.77455 8.61936C8.57804 8.61843 11.3806 8.61843 14.1841 8.61936C14.268 8.61936 14.3529 8.62029 14.435 8.63518C14.6145 8.66774 14.7168 8.78217 14.7264 8.95521C14.7361 9.14128 14.6318 9.26501 14.4475 9.3106C14.3597 9.332 14.2642 9.32735 14.1715 9.32735C12.7751 9.32828 11.3777 9.32828 9.98027 9.32828Z" fill="white" stroke="white" stroke-width="0.3" stroke-miterlimit="10"/>
<path d="M9.97862 12.9473C11.3847 12.9473 12.7898 12.9473 14.1959 12.9482C14.2876 12.9482 14.3831 12.9482 14.47 12.9724C14.6437 13.0208 14.7614 13.1529 14.718 13.3157C14.6862 13.4357 14.5646 13.5473 14.4555 13.6283C14.3938 13.6739 14.277 13.6553 14.1853 13.6553C11.3818 13.6562 8.57929 13.6562 5.7758 13.6562C5.70053 13.6562 5.62332 13.6581 5.54901 13.646C5.34732 13.6134 5.22958 13.4943 5.23247 13.2971C5.23537 13.0989 5.36179 12.9864 5.55963 12.9547C5.63394 12.9426 5.71114 12.9482 5.78642 12.9482C7.18382 12.9473 8.58122 12.9473 9.97862 12.9473Z" fill="white" stroke="white" stroke-width="0.3" stroke-miterlimit="10"/>
<path d="M9.97669 10.7898C11.3741 10.7898 12.7705 10.7898 14.1679 10.7898C14.2432 10.7898 14.3204 10.7861 14.3947 10.7936C14.6003 10.8159 14.7122 10.934 14.7257 11.1294C14.7383 11.3155 14.5916 11.4615 14.3851 11.4801C14.3185 11.4867 14.2509 11.4839 14.1834 11.4839C11.3809 11.4839 8.57833 11.4839 5.7758 11.4839C5.70053 11.4839 5.62332 11.4885 5.54901 11.4783C5.34442 11.4494 5.22958 11.3266 5.23248 11.1322C5.23537 10.9378 5.35311 10.814 5.55866 10.7954C5.70053 10.7833 5.84432 10.7898 5.98715 10.7898C7.31796 10.7898 8.64781 10.7898 9.97669 10.7898Z" fill="white" stroke="white" stroke-width="0.3" stroke-miterlimit="10"/>
<path d="M7.77937 7.14106C7.0797 7.14106 6.381 7.14199 5.68133 7.14013C5.38313 7.1392 5.22196 7.01453 5.22872 6.79869C5.23451 6.58565 5.40146 6.45912 5.69002 6.45912C7.08838 6.45819 8.48675 6.45819 9.88512 6.45912C10.1891 6.45912 10.3406 6.5782 10.3348 6.80055C10.329 7.01918 10.1708 7.14013 9.87643 7.14013C9.17773 7.14199 8.47903 7.14106 7.77937 7.14106Z" fill="white" stroke="white" stroke-width="0.3" stroke-miterlimit="10"/>
<path d="M19.0618 8.07791C19.0618 8.41841 19.0656 8.75984 19.0608 9.10035C19.057 9.3841 18.9267 9.53295 18.696 9.53295C18.4673 9.53388 18.3293 9.37852 18.3283 9.10314C18.3254 8.41376 18.3254 7.72345 18.3283 7.03407C18.3293 6.76148 18.4712 6.60147 18.696 6.60147C18.9276 6.60147 19.0579 6.75032 19.0618 7.03128C19.0647 7.37923 19.0618 7.72903 19.0618 8.07791Z" fill="white" stroke="white" stroke-width="0.3" stroke-miterlimit="10"/>
<path d="M19.0624 12.0253C19.0624 12.3742 19.0653 12.7231 19.0614 13.072C19.0585 13.3492 18.9225 13.5111 18.7024 13.5167C18.4718 13.5222 18.329 13.3529 18.328 13.0636C18.3261 12.3817 18.3251 11.7006 18.328 11.0187C18.329 10.7461 18.4689 10.5796 18.688 10.5749C18.9186 10.5694 19.0585 10.7359 19.0614 11.0271C19.0653 11.3592 19.0624 11.6923 19.0624 12.0253Z" fill="white" stroke="white" stroke-width="0.3" stroke-miterlimit="10"/>
</svg>
