<svg width="108" height="52" viewBox="0 0 108 52" fill="none" xmlns="http://www.w3.org/2000/svg">
<path d="M15.458 2.89648C15.805 2.89648 15.9785 3.07845 15.9785 3.44238C15.9785 3.62858 15.9193 3.8444 15.8008 4.08984C15.6908 4.32682 15.6019 4.52148 15.5342 4.67383L8.64063 21.6982L0.287109 3.03613H7.21875L11.2559 12.5322L14.0869 5.44824C14.3916 4.68652 14.5905 4.13639 14.6836 3.79785C14.7767 3.45931 14.8783 3.22656 14.9883 3.09961C15.0983 2.96419 15.2549 2.89648 15.458 2.89648ZM21.2598 5.21973C20.388 5.21973 19.7067 5.02507 19.2158 4.63574C18.725 4.24642 18.4795 3.73438 18.4795 3.09961C18.4795 2.56641 18.7503 2.10938 19.292 1.72852C19.8675 1.32227 20.4769 1.11914 21.1201 1.11914C21.7634 1.11914 22.2585 1.18262 22.6055 1.30957C22.961 1.43652 23.2614 1.60156 23.5069 1.80469C23.9977 2.2194 24.2432 2.70182 24.2432 3.25195C24.2432 3.80208 23.9639 4.26758 23.4053 4.64844C22.8467 5.0293 22.1315 5.21973 21.2598 5.21973ZM18.5938 7.44141H24.0528V21H18.5938V7.44141ZM37.6114 8.8252C37.3998 8.68978 37.1712 8.62207 36.9258 8.62207C36.6804 8.62207 36.4265 8.68132 36.1641 8.7998C35.9017 8.90983 35.6267 9.06641 35.3389 9.26953C34.738 9.70117 34.1836 10.2767 33.6758 10.9961V21H28.2168V7.44141H33.6758V9.6123C35.1231 8.0127 36.7608 7.21289 38.5889 7.21289C41.5765 7.21289 43.0703 8.66016 43.0703 11.5547V21H37.6114V8.8252ZM59.0156 17.915C59.3457 17.915 59.5108 18.0674 59.5108 18.3721C59.5108 18.6006 59.3627 18.8714 59.0664 19.1846C57.7292 20.5557 55.8968 21.2412 53.5694 21.2412C51.4789 21.2412 49.7184 20.6107 48.2881 19.3496C46.807 18.0378 46.0664 16.3789 46.0664 14.373C46.0664 12.3249 46.735 10.6406 48.0723 9.32031C49.4857 7.91536 51.3646 7.21289 53.709 7.21289C55.5879 7.21289 57.1664 7.78418 58.4444 8.92676C59.8239 10.154 60.5137 11.7663 60.5137 13.7637C60.5137 14.0514 60.5052 14.3561 60.4883 14.6777H52.1094V20.124C52.6849 20.2425 53.3324 20.3018 54.0518 20.3018C55.5752 20.3018 56.8744 19.7982 57.9492 18.791C58.1693 18.571 58.3259 18.3975 58.419 18.2705C58.6136 18.0335 58.8125 17.915 59.0156 17.915ZM55.626 8.38086C55.0759 8.22005 54.4538 8.13965 53.7598 8.13965C53.0658 8.13965 52.5156 8.1862 52.1094 8.2793V13.751H55.626V8.38086ZM78.4395 10.9453C78.4564 11.1484 78.4649 11.3516 78.4649 11.5547V21H73.0186V8.68555C72.9255 8.64323 72.8155 8.62207 72.6885 8.62207H72.2822C71.6221 8.62207 70.8519 9.07487 69.9717 9.98047C69.7009 10.2598 69.4427 10.5687 69.1973 10.9072V21H63.7383V7.44141H69.1973V9.48535C70.6276 7.97038 72.2272 7.21289 73.9961 7.21289C76.2813 7.21289 77.6905 8.05924 78.2237 9.75195C78.9515 8.91406 79.7513 8.28353 80.6231 7.86035C81.5033 7.42871 82.3877 7.21289 83.2764 7.21289C84.7914 7.21289 85.9128 7.57259 86.6406 8.29199C87.3685 9.01139 87.7324 10.099 87.7324 11.5547V21H82.2862V8.67285C82.21 8.639 82.0196 8.62207 81.7149 8.62207C81.4102 8.62207 81.1267 8.68132 80.8643 8.7998C80.6104 8.90983 80.348 9.06641 80.0772 9.26953C79.4847 9.70117 78.9388 10.2598 78.4395 10.9453ZM100.39 20.1621C99.3063 20.8815 98.1045 21.2412 96.7842 21.2412C95.0322 21.2412 93.6273 20.8011 92.5694 19.9209C91.4691 19.0153 90.919 17.7585 90.919 16.1504C90.919 14.7285 91.4649 13.5605 92.5567 12.6465C93.6739 11.724 95.1423 11.2627 96.9619 11.2627C98.1807 11.2627 99.3233 11.4954 100.39 11.9609V8.46973C99.6195 8.24967 98.9382 8.13965 98.3457 8.13965C97.7617 8.13965 97.2666 8.16504 96.8604 8.21582C96.4541 8.2666 96.069 8.34277 95.7051 8.44434C94.918 8.66439 94.3213 8.96061 93.9151 9.33301C93.6781 9.55306 93.4623 9.66309 93.2676 9.66309C93.0729 9.66309 92.9248 9.61654 92.8233 9.52344C92.7217 9.42188 92.6709 9.31185 92.6709 9.19336C92.6709 9.07487 92.6921 8.96908 92.7344 8.87598C92.7767 8.77441 92.8571 8.67285 92.9756 8.57129C93.2295 8.35124 93.6527 8.13118 94.2451 7.91113C95.4724 7.44564 96.7038 7.21289 97.9395 7.21289C101.697 7.21289 104.097 8.11003 105.138 9.9043C105.595 10.6999 105.823 11.7451 105.823 13.04V21H100.39V20.1621ZM100.39 12.9512C99.3233 12.4349 98.2611 12.1768 97.2031 12.1768C97.0339 12.1768 96.8731 12.1895 96.7207 12.2148V20.2891C96.763 20.2975 96.8096 20.3018 96.8604 20.3018C96.9112 20.3018 96.9619 20.3018 97.0127 20.3018C98.1722 20.3018 99.2979 19.8913 100.39 19.0703V12.9512Z" fill="white"/>
<path d="M18.2451 35.4727L17.7246 35.46C17.5384 35.443 17.3015 35.4346 17.0137 35.4346H14.1699V47H7.69531V29.0361H17.7754L19.0322 28.998H19.2608C19.8955 28.998 20.2129 29.1842 20.2129 29.5566C20.2129 29.7005 20.1537 29.8359 20.0352 29.9629C19.9252 30.0814 19.8024 30.1406 19.667 30.1406C19.447 30.1406 19.2354 30.1195 19.0322 30.0771C18.6429 29.9925 18.1351 29.9502 17.5088 29.9502H14.1699V34.5205H16.7217C16.7217 34.5205 17.2464 34.4993 18.2959 34.457C18.753 34.457 18.9815 34.6263 18.9815 34.9648C18.9815 35.3034 18.736 35.4727 18.2451 35.4727ZM25.0117 31.2197C24.14 31.2197 23.4587 31.0251 22.9678 30.6357C22.4769 30.2464 22.2315 29.7344 22.2315 29.0996C22.2315 28.5664 22.5023 28.1094 23.044 27.7285C23.6195 27.3223 24.2289 27.1191 24.8721 27.1191C25.5153 27.1191 26.0104 27.1826 26.3574 27.3096C26.7129 27.4365 27.0134 27.6016 27.2588 27.8047C27.7497 28.2194 27.9951 28.7018 27.9951 29.252C27.9951 29.8021 27.7158 30.2676 27.1572 30.6484C26.5987 31.0293 25.8835 31.2197 25.0117 31.2197ZM22.3457 33.4414H27.8047V47H22.3457V33.4414ZM31.9688 29.0361H37.4278V47H31.9688V29.0361ZM56.293 36.9453C56.3099 37.1484 56.3184 37.3516 56.3184 37.5547V47H50.8721V34.6855C50.779 34.6432 50.669 34.6221 50.542 34.6221H50.1358C49.4756 34.6221 48.7054 35.0749 47.8252 35.9805C47.5544 36.2598 47.2962 36.5687 47.0508 36.9072V47H41.5918V33.4414H47.0508V35.4854C48.4811 33.9704 50.0808 33.2129 51.8496 33.2129C54.1348 33.2129 55.544 34.0592 56.0772 35.752C56.805 34.9141 57.6048 34.2835 58.4766 33.8604C59.3568 33.4287 60.2412 33.2129 61.1299 33.2129C62.6449 33.2129 63.7663 33.5726 64.4942 34.292C65.222 35.0114 65.586 36.099 65.586 37.5547V47H60.1397V34.6729C60.0635 34.639 59.8731 34.6221 59.5684 34.6221C59.2637 34.6221 58.9802 34.6813 58.7178 34.7998C58.4639 34.9098 58.2015 35.0664 57.9307 35.2695C57.3382 35.7012 56.7923 36.2598 56.293 36.9453ZM68.7598 45.2988C68.7598 45.1719 68.8021 45.0576 68.8867 44.9561C68.9798 44.846 69.0983 44.791 69.2422 44.791C69.3861 44.791 69.5046 44.8333 69.5977 44.918C69.5977 44.918 69.7035 45.0153 69.9151 45.21C70.7953 45.9801 72.0267 46.3652 73.6094 46.3652C74.6758 46.3652 75.3614 46.1452 75.666 45.7051C75.7507 45.5866 75.793 45.4681 75.793 45.3496C75.793 45.2227 75.7676 45.1042 75.7168 44.9941C75.6745 44.8757 75.5772 44.736 75.4248 44.5752C75.2725 44.4059 75.0567 44.207 74.7774 43.9785L73.6602 43.0771C71.8151 41.6383 70.5498 40.4704 69.8643 39.5732C69.238 38.7523 68.9248 37.9144 68.9248 37.0596C68.9248 35.9847 69.4199 35.0833 70.4102 34.3555C71.4343 33.5938 72.7588 33.2129 74.3838 33.2129C75.5264 33.2129 76.4278 33.3441 77.0879 33.6064C77.7481 33.8688 78.2136 34.11 78.4844 34.3301C78.7552 34.5417 78.8906 34.7363 78.8906 34.9141C78.8906 35.278 78.7468 35.46 78.459 35.46C78.3236 35.46 78.1966 35.4134 78.0781 35.3203C77.9681 35.2188 77.7438 35.0537 77.4053 34.8252C77.0668 34.5882 76.6182 34.402 76.0596 34.2666C75.501 34.1312 74.9805 34.0635 74.4981 34.0635C74.0156 34.0635 73.6729 34.1396 73.4698 34.292C73.2751 34.4443 73.1778 34.5967 73.1778 34.749C73.1778 34.8929 73.2074 35.0326 73.2666 35.168C73.3259 35.2949 73.4359 35.4473 73.5967 35.625C73.9691 36.0651 74.5658 36.5856 75.3867 37.1865C76.2077 37.7874 76.9017 38.3376 77.4688 38.8369C78.0358 39.3363 78.4802 39.7975 78.8018 40.2207C79.3858 40.9824 79.6778 41.7526 79.6778 42.5312C79.6778 43.3099 79.5339 43.9785 79.2461 44.5371C78.9584 45.0872 78.5479 45.5612 78.0147 45.959C76.889 46.8138 75.3867 47.2412 73.5078 47.2412C72.0013 47.2412 70.7445 46.9535 69.7373 46.3779C69.0856 46.014 68.7598 45.6543 68.7598 45.2988Z" fill="white"/>
<path d="M89 46.3949C89.002 46.5024 89.0318 46.6076 89.0864 46.6999C89.141 46.7922 89.2186 46.8684 89.3114 46.9211C89.4042 46.9737 89.509 47.0009 89.6153 47C89.7217 46.999 89.826 46.97 89.9179 46.9157L102.688 39.5264C102.782 39.4754 102.861 39.3995 102.916 39.3068C102.971 39.2141 103 39.1081 103 39C103 38.8919 102.971 38.7859 102.916 38.6932C102.861 38.6005 102.782 38.5246 102.688 38.4736L89.9179 31.0843C89.826 31.03 89.7217 31.001 89.6153 31C89.509 30.9991 89.4042 31.0263 89.3114 31.0789C89.2186 31.1316 89.141 31.2078 89.0864 31.3001C89.0318 31.3924 89.002 31.4976 89 31.6051V46.3949Z" fill="#DC211F" stroke="#DC211F" stroke-width="2" stroke-linecap="round" stroke-linejoin="round"/>
</svg>
