<svg width="11" height="13" viewBox="0 0 11 13" fill="none" xmlns="http://www.w3.org/2000/svg">
<path d="M1 11.584C1.00129 11.6579 1.02044 11.7302 1.05556 11.7937C1.09067 11.8571 1.14052 11.9096 1.20017 11.9457C1.25982 11.9819 1.32718 12.0006 1.39558 12C1.46398 11.9993 1.53103 11.9794 1.59008 11.942L9.79948 6.86191C9.86007 6.82685 9.91072 6.77467 9.94603 6.71093C9.98135 6.6472 10 6.57429 10 6.5C10 6.4257 9.98135 6.3528 9.94603 6.28906C9.91072 6.22533 9.86007 6.17315 9.79948 6.13808L1.59008 1.05796C1.53103 1.02064 1.46398 1.00067 1.39558 1.00002C1.32718 0.999366 1.25982 1.01806 1.20017 1.05426C1.14052 1.09045 1.09067 1.14288 1.05556 1.20634C1.02044 1.26979 1.00129 1.34208 1 1.41601V11.584Z" stroke="white" stroke-linecap="round" stroke-linejoin="round"/>
</svg>
