<svg width="300" height="132" viewBox="0 0 300 132" fill="none" xmlns="http://www.w3.org/2000/svg">
<path d="M43.1246 5.05858C44.111 5.05858 44.6042 5.5765 44.6042 6.6123C44.6042 7.14225 44.4359 7.75651 44.099 8.45507C43.7863 9.12955 43.5336 9.68358 43.3412 10.1172L23.7456 58.5712L0 5.45605H19.7038L31.1797 32.4833L39.2271 12.3213C40.0933 10.1533 40.6586 8.58756 40.9233 7.62402C41.1879 6.66048 41.4767 5.99804 41.7894 5.63672C42.1021 5.2513 42.5473 5.05858 43.1246 5.05858ZM59.6167 11.6709C57.1386 11.6709 55.2019 11.1169 53.8065 10.0088C52.4113 8.90072 51.7135 7.44338 51.7135 5.63672C51.7135 4.11915 52.4833 2.81838 54.0231 1.73439C55.659 0.578139 57.3913 0 59.2196 0C61.0483 0 62.4556 0.180674 63.442 0.541993C64.4526 0.903312 65.3065 1.37304 66.0043 1.95118C67.3995 3.13151 68.0973 4.50455 68.0973 6.07031C68.0973 7.63606 67.3034 8.96094 65.7155 10.0449C64.1277 11.1289 62.0946 11.6709 59.6167 11.6709ZM52.0384 17.9942H67.5561V56.584H52.0384V17.9942ZM106.098 21.9326C105.496 21.5472 104.846 21.3545 104.149 21.3545C103.451 21.3545 102.729 21.5231 101.984 21.8603C101.238 22.1735 100.456 22.6192 99.6379 23.1973C97.9298 24.4258 96.3538 26.0638 94.9104 28.1114V56.584H79.3927V17.9942H94.9104V24.1728C99.0245 19.6201 103.68 17.3438 108.876 17.3438C117.369 17.3438 121.615 21.4629 121.615 29.7012V56.584H106.098V21.9326ZM166.941 47.8036C167.879 47.8036 168.349 48.2374 168.349 49.1046C168.349 49.7549 167.928 50.5257 167.086 51.4171C163.284 55.3194 158.076 57.2705 151.46 57.2705C145.517 57.2705 140.513 55.476 136.447 51.8867C132.237 48.1531 130.132 43.4316 130.132 37.7225C130.132 31.8933 132.032 27.0995 135.834 23.3418C139.851 19.3431 145.192 17.3438 151.857 17.3438C157.198 17.3438 161.685 18.9697 165.317 22.2217C169.239 25.7146 171.2 30.3035 171.2 35.9884C171.2 36.8072 171.175 37.6744 171.127 38.5898H147.31V54.0908C148.945 54.428 150.786 54.5968 152.831 54.5968C157.161 54.5968 160.855 53.1635 163.91 50.2968C164.535 49.6707 164.981 49.1769 165.245 48.8154C165.798 48.1409 166.364 47.8036 166.941 47.8036ZM157.306 20.668C155.742 20.2103 153.974 19.9815 152.001 19.9815C150.028 19.9815 148.464 20.1139 147.31 20.3789V35.9522H157.306V20.668ZM222.155 27.9668C222.203 28.5448 222.228 29.1232 222.228 29.7012V56.584H206.746V21.5352C206.481 21.4147 206.169 21.3545 205.808 21.3545H204.653C202.776 21.3545 200.587 22.6432 198.085 25.2207C197.315 26.0157 196.581 26.8949 195.884 27.8583V56.584H180.366V17.9942H195.884V23.8115C199.949 19.4997 204.496 17.3438 209.525 17.3438C216.02 17.3438 220.026 19.7526 221.542 24.5703C223.611 22.1855 225.884 20.391 228.362 19.1865C230.864 17.958 233.378 17.3438 235.905 17.3438C240.211 17.3438 243.399 18.3675 245.468 20.415C247.537 22.4626 248.571 25.5581 248.571 29.7012V56.584H233.09V21.499C232.873 21.4027 232.332 21.3545 231.466 21.3545C230.6 21.3545 229.794 21.5231 229.048 21.8603C228.326 22.1735 227.58 22.6192 226.811 23.1973C225.126 24.4258 223.575 26.0157 222.155 27.9668ZM284.552 54.1992C281.471 56.2467 278.055 57.2705 274.302 57.2705C269.322 57.2705 265.328 56.0179 262.321 53.5127C259.193 50.9352 257.629 47.3582 257.629 42.7813C257.629 38.7343 259.181 35.41 262.285 32.8086C265.461 30.1831 269.635 28.8701 274.807 28.8701C278.272 28.8701 281.519 29.5324 284.552 30.8573V20.9209C282.361 20.2946 280.425 19.9815 278.741 19.9815C277.08 19.9815 275.673 20.0537 274.518 20.1982C273.363 20.3428 272.269 20.5596 271.234 20.8486C268.997 21.4749 267.301 22.318 266.146 23.3779C265.472 24.0042 264.859 24.3174 264.306 24.3174C263.752 24.3174 263.331 24.1849 263.043 23.9199C262.754 23.6309 262.609 23.3177 262.609 22.9805C262.609 22.6432 262.67 22.3421 262.79 22.0772C262.91 21.7881 263.139 21.499 263.476 21.21C264.197 20.5837 265.4 19.9573 267.084 19.331C270.573 18.0062 274.073 17.3438 277.586 17.3438C288.267 17.3438 295.089 19.8971 298.048 25.0039C299.347 27.2683 299.995 30.2431 299.995 33.9286V56.584H284.552V54.1992ZM284.552 33.6759C281.519 32.2064 278.5 31.4718 275.493 31.4718C275.012 31.4718 274.555 31.5079 274.121 31.58V54.5607C274.242 54.5846 274.374 54.5968 274.518 54.5968C274.663 54.5968 274.807 54.5968 274.951 54.5968C278.247 54.5968 281.447 53.4285 284.552 51.0918V33.6759Z" fill="white"/>
<path d="M51.0473 97.7754L49.5677 97.7392C49.0384 97.6909 48.365 97.6669 47.5469 97.6669H39.4631V130.584H21.0586V79.4558H49.7121L53.2847 79.3474H53.9345C55.7387 79.3474 56.6409 79.8773 56.6409 80.9373C56.6409 81.3468 56.4726 81.7322 56.1358 82.0936C55.8231 82.4309 55.474 82.5994 55.0892 82.5994C54.4638 82.5994 53.8623 82.5394 53.2847 82.4187C52.1781 82.1779 50.7346 82.0575 48.9543 82.0575H39.4631V95.0653H46.7169C46.7169 95.0653 48.2084 95.0049 51.1917 94.8845C52.491 94.8845 53.1406 95.3664 53.1406 96.3298C53.1406 97.2935 52.4427 97.7754 51.0473 97.7754ZM70.282 85.6707C67.8041 85.6707 65.8674 85.1168 64.472 84.0085C63.0766 82.9005 62.379 81.4433 62.379 79.6366C62.379 78.119 63.1488 76.8183 64.6886 75.7342C66.3245 74.5781 68.0568 73.9998 69.8851 73.9998C71.7135 73.9998 73.1209 74.1805 74.1072 74.5419C75.1178 74.9031 75.972 75.373 76.6695 75.9511C78.065 77.1314 78.7626 78.5044 78.7626 80.0703C78.7626 81.636 77.9686 82.9609 76.3807 84.0447C74.7932 85.1288 72.7601 85.6707 70.282 85.6707ZM62.7036 91.994H78.2213V130.584H62.7036V91.994ZM90.0582 79.4558H105.576V130.584H90.0582V79.4558ZM159.202 101.967C159.25 102.545 159.274 103.123 159.274 103.701V130.584H143.793V95.5349C143.528 95.4145 143.215 95.3544 142.854 95.3544H141.7C139.823 95.3544 137.634 96.6432 135.131 99.2207C134.362 100.016 133.628 100.895 132.93 101.858V130.584H117.412V91.994H132.93V97.8115C136.996 93.4996 141.543 91.3436 146.571 91.3436C153.067 91.3436 157.073 93.7523 158.589 98.5703C160.657 96.1855 162.931 94.3907 165.409 93.1865C167.911 91.9578 170.425 91.3436 172.951 91.3436C177.258 91.3436 180.446 92.3674 182.515 94.4149C184.583 96.4625 185.618 99.5579 185.618 103.701V130.584H170.137V95.499C169.92 95.4025 169.379 95.3544 168.513 95.3544C167.646 95.3544 166.841 95.5229 166.095 95.8602C165.373 96.1733 164.627 96.619 163.857 97.197C162.173 98.4257 160.621 100.016 159.202 101.967ZM194.64 125.742C194.64 125.381 194.76 125.055 195.001 124.767C195.265 124.453 195.602 124.297 196.011 124.297C196.42 124.297 196.757 124.417 197.022 124.658C197.022 124.658 197.323 124.935 197.924 125.489C200.426 127.681 203.926 128.777 208.425 128.777C211.457 128.777 213.406 128.151 214.272 126.898C214.512 126.561 214.633 126.224 214.633 125.887C214.633 125.525 214.56 125.188 214.416 124.875C214.296 124.538 214.019 124.14 213.586 123.682C213.153 123.201 212.54 122.635 211.746 121.984L208.57 119.419C203.325 115.324 199.728 112 197.78 109.446C195.999 107.11 195.109 104.725 195.109 102.292C195.109 99.2326 196.516 96.6671 199.331 94.5957C202.243 92.4277 206.008 91.3436 210.627 91.3436C213.875 91.3436 216.437 91.7171 218.313 92.4636C220.19 93.2104 221.513 93.8969 222.283 94.5234C223.053 95.1256 223.438 95.6795 223.438 96.1855C223.438 97.2212 223.029 97.7392 222.211 97.7392C221.826 97.7392 221.465 97.6066 221.128 97.3416C220.815 97.0527 220.178 96.5828 219.216 95.9325C218.253 95.258 216.978 94.728 215.39 94.3426C213.802 93.9573 212.323 93.7646 210.952 93.7646C209.58 93.7646 208.606 93.9812 208.029 94.4149C207.475 94.8484 207.199 95.2822 207.199 95.7156C207.199 96.1252 207.283 96.5228 207.451 96.9082C207.62 97.2693 207.932 97.7031 208.389 98.2089C209.448 99.4614 211.144 100.943 213.478 102.653C215.811 104.363 217.784 105.929 219.396 107.35C221.008 108.772 222.271 110.084 223.185 111.289C224.845 113.457 225.675 115.649 225.675 117.865C225.675 120.081 225.266 121.984 224.448 123.574C223.63 125.14 222.464 126.489 220.948 127.621C217.748 130.054 213.478 131.27 208.137 131.27C203.854 131.27 200.282 130.452 197.419 128.813C195.566 127.778 194.64 126.754 194.64 125.742Z" fill="white"/>
<path d="M252.178 128.862C252.183 129.168 252.268 129.467 252.423 129.73C252.579 129.993 252.799 130.209 253.063 130.359C253.327 130.509 253.625 130.586 253.927 130.584C254.229 130.581 254.526 130.499 254.787 130.344L291.087 109.313C291.354 109.168 291.579 108.952 291.735 108.688C291.892 108.424 291.974 108.122 291.974 107.815C291.974 107.507 291.892 107.205 291.735 106.941C291.579 106.678 291.354 106.462 291.087 106.316L254.787 85.2854C254.526 85.1309 254.229 85.0483 253.927 85.0455C253.625 85.0429 253.327 85.1203 253.063 85.27C252.799 85.42 252.579 85.6369 252.423 85.8996C252.268 86.1623 252.183 86.4617 252.178 86.7677V128.862Z" fill="#DC211F" stroke="#DC211F" stroke-width="2" stroke-linecap="round" stroke-linejoin="round"/>
</svg>
